<?xml version="1.0" encoding="UTF-8" standalone="no"?>
<!-- Created with Inkscape (http://www.inkscape.org/) -->

<svg
   xmlns:dc="http://purl.org/dc/elements/1.1/"
   xmlns:cc="http://creativecommons.org/ns#"
   xmlns:rdf="http://www.w3.org/1999/02/22-rdf-syntax-ns#"
   xmlns:svg="http://www.w3.org/2000/svg"
   xmlns="http://www.w3.org/2000/svg"
   xmlns:sodipodi="http://sodipodi.sourceforge.net/DTD/sodipodi-0.dtd"
   xmlns:inkscape="http://www.inkscape.org/namespaces/inkscape"
   id="svg3372"
   version="1.1"
   inkscape:version="0.48.4 r9939"
   width="1000"
   height="1000"
   sodipodi:docname="icone sgi.png">
  <metadata
     id="metadata3378">
    <rdf:RDF>
      <cc:Work
         rdf:about="">
        <dc:format>image/svg+xml</dc:format>
        <dc:type
           rdf:resource="http://purl.org/dc/dcmitype/StillImage" />
        <dc:title></dc:title>
      </cc:Work>
    </rdf:RDF>
  </metadata>
  <defs
     id="defs3376" />
  <sodipodi:namedview
     pagecolor="#ffffff"
     bordercolor="#666666"
     borderopacity="1"
     objecttolerance="10"
     gridtolerance="10"
     guidetolerance="10"
     inkscape:pageopacity="0"
     inkscape:pageshadow="2"
     inkscape:window-width="1366"
     inkscape:window-height="710"
     id="namedview3374"
     showgrid="false"
     inkscape:zoom="0.3337544"
     inkscape:cx="377.20191"
     inkscape:cy="400.95422"
     inkscape:window-x="0"
     inkscape:window-y="26"
     inkscape:window-maximized="1"
     inkscape:current-layer="svg3372" />
  <path
     inkscape:connector-curvature="0"
     id="path3396"
     d="m 458.99927,973.15129 c -27.95849,-5.87401 -53.20779,-19.75051 -74.41658,-40.89757 -19.90827,-19.85043 -31.79257,-40.64333 -37.95616,-66.40857 -1.03568,-4.32937 -2.10195,-8.09049 -2.3695,-8.35802 -0.26754,-0.26755 -3.18841,1.15491 -6.49081,3.16102 -13.9295,8.46174 -32.64429,15.74984 -50.8544,19.80424 -8.21959,1.8301 -12.99136,2.18 -30.25851,2.2185 -17.93601,0.04 -21.8031,-0.2459 -30.91878,-2.2865 -34.75704,-7.7809 -58.88132,-23.66829 -82.63169,-54.41849 -16.38389,-21.21263 -26.65255,-40.55487 -32.15017,-60.55863 -2.42332,-8.81756 -2.66876,-11.3571 -2.72458,-28.19053 -0.0478,-14.41889 0.34549,-20.37511 1.78292,-27 2.78117,-12.81796 9.56978,-32.62057 17.37334,-50.67858 l 6.99138,-16.17858 -12.61121,-4.18936 C 91.202649,629.01777 69.879068,616.49123 52.538958,598.50361 42.246888,587.8272 36.934688,580.16526 30.590648,566.8469 c -16.31627,-34.25358 -18.99332,-85.65182 -6.4227,-123.31292 6.43228,-19.27086 16.59017,-35.44162 31.96561,-50.8874 17.71351,-17.79454 40.927281,-31.78477 68.019752,-40.99343 6.05,-2.0564 11.34605,-4.03938 11.76901,-4.40666 0.42295,-0.36727 -0.98112,-4.46172 -3.12016,-9.09877 -9.04012,-19.5973 -15.51717,-41.20925 -18.15994,-60.5942 -1.60669,-11.78525 -0.76453,-40.01456 1.50169,-50.33679 3.94556,-17.9713 12.25743,-37.94607 22.26234,-53.49999 24.27441,-37.73772 53.7324,-57.43107 95.77699,-64.02917 14.73068,-2.31169 42.54696,-1.58952 56.47007,1.46607 14.30238,3.13885 29.74128,8.58648 42.61144,15.03554 6.96024,3.48769 11.68771,5.33662 11.90516,4.65617 0.19837,-0.62073 1.31485,-4.71799 2.48108,-9.105 6.55352,-24.652481 19.60223,-47.747164 37.00232,-65.489783 20.83947,-21.249734 47.9,-34.857284 77.73898,-39.09156 13.16004,-1.86747 54.51339,-0.67794 65.26102,1.877236 27.37178,6.50745 49.40401,18.641044 68.47172,37.708774 10.76454,10.76453 18.71927,21.666959 26.04798,35.700282 5.00763,9.588821 13.43183,32.087251 13.46557,35.962411 0.008,0.93005 0.41183,1.93642 0.89717,2.23638 0.48535,0.29996 5.99785,-1.88181 12.25,-4.84837 57.80947,-27.429671 119.82352,-25.819861 165.36756,4.29278 3.85,2.54552 11.46929,9.12823 16.93176,14.62823 30.62824,30.83867 45.80621,56.88663 51.19793,87.86431 1.97341,11.33806 1.36719,37.29343 -1.13594,48.63569 -3.14555,14.2532 -9.52927,31.75383 -17.29508,47.4136 -4.28709,8.64492 -7.5481,15.86458 -7.24669,16.04371 0.30141,0.17912 6.84802,1.97734 14.54802,3.99605 18.96715,4.97262 27.18951,7.80589 39.09312,13.47072 32.70443,15.56381 53.98204,40.40134 63.87674,74.56403 5.06171,17.47618 5.96321,25.79205 5.96321,55.01189 0,30.66802 -1.1145,39.81786 -6.98811,57.37078 -8.5733,25.62095 -23.29371,45.28802 -47.66611,63.68383 -12.64776,9.54637 -27.38028,18.23378 -50.8045,29.95823 -10.43589,5.22344 -18.97435,9.69836 -18.97435,9.94425 0,0.2459 1.97737,3.28116 4.39416,6.745 6.00126,8.60129 12.02257,20.83268 15.51157,31.50942 8.67758,26.55443 7.9009,60.76796 -2.0201,88.98749 -9.70874,27.61577 -22.23655,44.93932 -46.84432,64.77663 -25.72378,20.73699 -46.7506,31.87293 -70.1833,37.16963 -11.35953,2.5677 -34.47664,2.3079 -47.81649,-0.5374 -16.5431,-3.5285 -40.73935,-11.8864 -62.32003,-21.52657 -6.93942,-3.09987 -7.72149,-3.16171 -7.72149,-0.61068 0,3.38811 -7.61313,25.33805 -11.91299,34.34705 -19.66787,41.20823 -60.12564,72.74959 -102.87778,80.2049 -13.1601,2.295 -52.85418,1.9351 -64.86327,-0.588 z m 43.32436,-6.02171 c 11.3755,-3.977 25.83825,-10.7919 35.32968,-16.6475 26.36732,-16.26686 55.50865,-44.93379 87.59007,-86.16415 l 5.75702,-7.3988 -6.42354,0.76839 c -31.22166,3.73476 -51.63256,1.47966 -71.50968,-7.90076 -15.91947,-7.51272 -28.44281,-16.8484 -47.98154,-35.76846 l -11.06768,-10.71722 -14.93232,14.70782 c -8.21278,8.08931 -18.98233,17.56374 -23.93233,21.05428 -11.89391,8.38712 -26.73722,15.54 -39.02348,18.80513 -13.53232,3.59627 -34.81463,3.81648 -49.89191,0.51624 -5.45347,-1.1937 -10.13382,-1.95194 -10.40079,-1.68498 -0.26696,0.26698 2.16996,3.96976 5.4154,8.22843 37.50027,49.20799 79.56968,85.11638 118.21897,100.90628 5.87499,2.4002 11.43345,4.3681 12.35213,4.3731 0.91868,0.01 5.64368,-1.3799 10.5,-3.0778 z m 254.76725,-112.4881 c 25.37872,-2.83708 50.52508,-9.34865 66.56243,-17.2361 6.91152,-3.39921 7.75388,-4.15942 10.73557,-9.68864 6.93794,-12.86561 14.68524,-41.88505 17.21952,-64.5 1.83551,-16.37948 2.35013,-43.67884 1.1499,-61 -1.09476,-15.79914 -3.66685,-39.08695 -4.61442,-41.77923 -0.26282,-0.74675 -3.31049,1.95893 -7.32159,6.5 -32.68609,37.00471 -56.86549,47.07184 -124.50264,51.83684 l -9.83365,0.69277 0.83365,6.12481 c 0.45851,3.36865 0.78455,13.77481 0.72452,23.12481 -0.0956,14.89154 -0.43039,18.21266 -2.69933,26.77735 -7.33728,27.69633 -24.96506,51.09496 -52.54007,69.7402 -4.37622,2.95905 -5.92958,4.51665 -5,5.01364 3.01115,1.60989 35.7309,5.35268 55.34854,6.33129 11.97058,0.59714 40.39774,-0.42413 53.93757,-1.93774 z m -462.43757,0.5603 c 14.05727,-1.21973 34.689,-3.8074 38.5149,-4.8306 2.76559,-0.73964 2.66744,-0.86019 -5.17334,-6.35437 -24.00389,-16.81997 -37.99107,-34.43484 -45.64939,-57.48893 -5.35323,-16.11501 -6.81239,-26.51295 -7.4111,-52.81115 l -0.52363,-23 -20.62872,-0.0576 c -29.06965,-0.0811 -45.4643,-3.42539 -64.33026,-13.12234 -16.1962,-8.32471 -31.40345,-22.23287 -42.43568,-38.81055 -3.72752,-5.60119 -5.97049,-8.15398 -6.42164,-7.30864 -0.38133,0.71451 -1.41306,6.4741 -2.29275,12.79909 -6.92849,49.81625 -5.65697,95.23595 3.69534,132 2.61729,10.28861 9.5016,29.32632 12.42812,34.36844 5.60744,9.6611 46.40355,21.82234 83.72815,24.95918 9.45545,0.79466 45.94326,0.57343 56.5,-0.34257 z m 75.10007,-12.56453 c 30.12415,-7.55751 60.30907,-17.91472 87.96181,-30.18192 19.00897,-8.4327 25.73659,-11.96665 23.93812,-12.57448 -0.825,-0.27882 -5.32413,-1.74144 -9.99807,-3.25026 -12.03956,-3.88658 -18.26117,-6.80651 -27.9924,-13.13744 -15.90135,-10.34507 -31.83114,-28.99635 -41.5352,-48.63116 l -3.69598,-7.47834 -4.13918,1.47694 c -2.27654,0.81231 -8.62015,2.56895 -14.0969,3.90364 -32.34133,7.88162 -58.82915,4.03579 -87.04227,-12.63787 -4.4,-2.60037 -8.1281,-4.3845 -8.28467,-3.96476 -0.41068,1.10099 7.59179,23.38211 13.84374,38.54484 6.18552,15.0016 21.30985,45.90853 28.87674,59.0103 11.39949,19.73776 20.52367,33.5 22.21004,33.5 0.93523,0 9.91462,-2.06077 19.95422,-4.57949 z m 276.36296,-10.17052 c 11.91509,-20.43116 32.8464,-62.65364 40.27875,-81.25 9.09221,-22.74949 11.28497,-29 10.17357,-29 -0.54727,0 -2.8896,0.96655 -5.20519,2.14789 -13.38677,6.82951 -32.72825,11.0713 -50.16461,11.00163 -14.44269,-0.0577 -25.67673,-1.91975 -40.11328,-6.64882 -5.91038,-1.93609 -10.8501,-3.40329 -10.97717,-3.26043 -0.12707,0.14285 -2.74916,5.14236 -5.82686,11.11003 -13.02347,25.25249 -29.82368,42.67204 -51.61771,53.5206 -5.23079,2.60376 -13.22078,5.83548 -17.75553,7.18161 -4.53475,1.34612 -8.24725,2.71436 -8.25,3.04055 -0.009,1.08872 27.28951,13.63983 43.995,20.22757 20.58254,8.11664 42.39059,15.40174 61.66028,20.59796 8.16184,2.20091 16.41472,4.429 18.33972,4.95134 6.55233,1.77792 6.41034,1.90298 15.46303,-13.61993 z M 508.5959,786.21398 c 29.09165,-17.46639 52.9633,-36.60045 72.63387,-58.21892 l 7.02593,-7.72167 9.4488,1.08488 c 24.72056,2.83833 68.59471,-1.2373 97.70669,-9.07634 l 3.98526,-1.07312 3.11789,-10.74604 c 11.33036,-39.05093 16.02432,-70.03961 14.58901,-96.31386 l -0.68655,-12.56783 10.36825,-9.87268 c 24.94882,-23.75632 40.94547,-41.48936 47.50012,-52.65611 1.72252,-2.93455 5.64269,-9.61055 8.71148,-14.83555 3.06879,-5.225 6.51572,-10.92235 7.65985,-12.66079 l 2.08024,-3.16078 -5.09552,-9.79912 c -13.66614,-26.28112 -40.82183,-61.51106 -61.23077,-79.43664 -4.54143,-3.98882 -8.53658,-7.74521 -8.87813,-8.34754 -0.34154,-0.60232 -0.92787,-8.52013 -1.30296,-17.59513 -1.72932,-41.83923 -7.94962,-81.1023 -15.32726,-96.74696 -1.55159,-3.29023 -2.36898,-3.84821 -7.24879,-4.94828 -21.54929,-4.85791 -49.33245,-7.93641 -80.67955,-8.93968 l -21.17956,-0.67785 -5.51925,-6.62584 c -14.56217,-17.48182 -40.61958,-40.40191 -63.62164,-55.9616 -18.68797,-12.64141 -23.72271,-15.31342 -26.30938,-13.96273 -11.95837,6.24429 -42.88138,31.39029 -76.02622,61.82308 l -15.83561,14.53985 -26.66439,0.63905 c -32.88299,0.78807 -54.88894,3.57443 -82.6644,10.46681 -17.63504,4.37608 -16.06622,3.25016 -18.39042,13.1984 -4.89203,20.93937 -7.19006,40.91071 -9.54477,82.95033 -0.80881,14.44002 -1.83133,26.89925 -2.27227,27.68717 -0.44094,0.78791 -7.06948,8.25715 -14.73009,16.59829 -26.13677,28.45866 -37.31112,42.36958 -47.51616,59.15276 l -5.28567,8.69282 5.1433,9.626 c 15.82176,29.61139 26.80983,44.19365 53.99701,71.65942 l 11.55266,11.67103 -0.29985,23.32897 c -0.21557,16.77166 0.15481,27.26408 1.31769,37.32896 1.74366,15.09165 7.29218,44.27218 10.2678,54 1.82211,5.95678 1.87107,6.00897 6.79805,7.24481 22.13247,5.55155 90.64905,15.25518 107.71561,15.25518 l 6.03927,0 16.10655,15.75 c 16.42014,16.05664 32.21711,28.82525 50.10129,40.49666 10.05917,6.56471 27.40054,16.75334 28.51472,16.75334 0.32926,0 6.5968,-3.60123 13.92787,-8.00275 z m 228.39098,-85.00162 c 23.6281,-8.08955 41.73235,-15.68736 64.66643,-27.13856 27.40084,-13.68151 42,-22.52755 42,-25.44895 0,-7.32447 -12.55458,-55.20188 -21.47822,-81.90811 -9.39834,-28.12688 -22.95024,-60.56976 -24.55648,-58.78753 -0.39037,0.43314 -1.49994,4.16253 -2.46572,8.28753 -7.3713,31.48427 -27.23423,54.30302 -62.80838,72.15496 -7.75999,3.89415 -9.77542,5.32908 -9.34701,6.65484 0.3004,0.92961 1.9319,5.46655 3.62556,10.0821 10.80225,29.43819 6.50146,64.60599 -11.65937,95.33924 -2.92071,4.94267 -5.31038,9.13841 -5.31038,9.32387 0,0.53894 8.89178,-2.24549 27.33357,-8.55939 z m -466.33357,-0.35185 c 0,-0.19592 -2.27421,-4.67614 -5.05381,-9.95604 -10.0897,-19.16559 -13.94619,-34.00599 -13.94619,-53.66721 0,-14.24115 1.94763,-26.09937 6.54567,-39.85347 1.89988,-5.68313 3.45433,-10.4647 3.45433,-10.62571 0,-0.16102 -4.08693,-2.65147 -9.08207,-5.53433 -29.69457,-17.13774 -48.94236,-43.11225 -56.87897,-76.75702 -0.68114,-2.8875 -1.57473,-5.25 -1.98575,-5.25 -1.97124,0 -22.78896,46.75677 -31.64047,71.06475 -10.221,28.06888 -20.54998,65.90881 -18.76376,68.74055 1.66749,2.64351 33.01154,20.89778 53.35102,31.07077 20.04469,10.02554 40.92218,19.14436 58.5,25.55147 5.5,2.00474 10.9,4.04823 12,4.54106 2.1824,0.97777 3.5,1.23195 3.5,0.67519 z m 596.5,-68.17906 c 48.75333,-36.37424 91.01766,-88.66075 105.61606,-130.66097 2.109,-6.06768 2.2087,-7.14052 1.0616,-11.4292 -7.0807,-26.4739 -37.02951,-68.21017 -71.27904,-99.33351 -16.4388,-14.9383 -45.343,-37.93 -46.38015,-36.89284 -0.23628,0.23628 0.30374,4.6871 1.20006,9.8907 2.18239,12.67 2.15074,37.83033 -0.06,47.6864 -3.59437,16.02472 -9.17478,28.93756 -18.57918,42.99142 -6.39829,9.56156 -21.52631,27.56637 -30.45727,36.24912 -3.09215,3.00621 -5.61239,5.93122 -5.60052,6.5 0.0119,0.56879 2.49474,2.80606 5.51751,4.97171 12.83932,9.19866 27.14396,25.75683 34.613,40.06587 4.83681,9.26625 9.33612,22.29414 12.02137,34.80817 3.45377,16.09564 3.02621,47.02854 -0.86511,62.58756 -0.74871,2.99364 -0.89846,3.07804 13.19166,-7.43443 z M 132.70244,622.22831 c -2.83356,-27.6123 0.14955,-52.60073 8.55639,-71.67376 7.8772,-17.87141 22.95931,-36.40507 44.39448,-54.55419 l 5.5,-4.65683 -4.5,-3.7798 c -29.48929,-24.76962 -46.64534,-52.99317 -50.92758,-83.78133 -1.39487,-10.0287 -1.26182,-26.80054 0.29998,-37.81567 0.68235,-4.8125 0.84676,-8.75 0.36536,-8.75 -1.26544,0 -23.00684,16.71519 -33.38067,25.66368 -13.190151,11.37782 -33.769182,32.44504 -43.308952,44.33632 -15.7214,19.5967 -29.09084,42.5969 -35.60072,61.24597 l -2.7039,7.74597 3.26852,8.25403 c 8.8724,22.40551 24.04344,48.80311 38.06689,66.23638 7.94198,9.87307 22.552181,24.56159 34.447911,34.63253 10.259371,8.68561 35.711421,27.98019 36.228031,27.46359 0.18886,-0.18887 -0.12872,-4.94397 -0.70574,-10.56689 z M 804.62288,476.94432 c 11.96837,-25.20851 21.63487,-50.38157 29.98228,-78.07848 5.96972,-19.8077 12.25524,-45.23491 11.8489,-47.93308 -0.73802,-4.90055 -62.53395,-38.02411 -93.80075,-50.27864 -17.98419,-7.04863 -40.98543,-14.7853 -41.73334,-14.03739 -0.30763,0.30764 0.59042,2.29674 1.99567,4.42022 1.40526,2.12348 4.34266,7.42013 6.52757,11.77033 11.80531,23.50459 13.73683,46.92375 6.6777,80.96529 -1.35718,6.5448 -2.4676,12.39993 -2.4676,13.01139 0,0.61146 1.2375,1.66795 2.75,2.34776 8.20265,3.68676 26.5136,17.2748 35.77503,26.54764 17.94006,17.96214 27.32055,34.62635 35.06235,62.28737 0.19242,0.6875 0.62113,1.25 0.9527,1.25 0.33157,0 3.22484,-5.52259 6.42949,-12.27241 z m -609.10346,0.14176 c 3.60858,-17.47101 12.18232,-33.80022 24.46389,-46.59299 8.32716,-8.67376 23.36922,-19.56515 33.42,-24.19819 2.8875,-1.33102 5.24172,-2.90562 5.2316,-3.4991 -0.0101,-0.59348 -1.55137,-5.88091 -3.42501,-11.74983 -5.20852,-16.31502 -6.92791,-28.5483 -6.28603,-44.72438 0.42344,-10.67106 1.11358,-15.54563 3.20038,-22.60485 2.9008,-9.81276 8.81039,-22.39825 13.53194,-28.81856 1.64842,-2.2415 2.99712,-4.42548 2.99712,-4.85329 0,-1.63757 -30.30009,10.46001 -53.92856,21.53145 -26.48465,12.40975 -67.42706,35.79759 -68.7635,39.28029 -1.26767,3.30351 10.4785,43.96237 20.18229,69.86011 9.41347,25.12292 25.83324,62.49999 27.45628,62.49999 0.35934,0 1.22316,-2.75878 1.9196,-6.13064 z M 149.03699,333.8259 c 7.98054,-10.4193 25.67177,-27.18831 35.77734,-33.91234 22.48658,-14.96205 46.32425,-21.71419 71.83898,-20.34876 6.325,0.33848 12.57362,0.91711 13.88583,1.28583 2.2575,0.63434 2.35023,0.4874 1.72401,-2.73175 -0.36401,-1.87117 -0.92458,-10.60215 -1.24572,-19.40215 -0.44522,-12.20009 -0.21144,-18.13745 0.98435,-25 3.01798,-17.31983 10.19785,-34.92654 20.79739,-51 6.70213,-10.16332 28.82638,-32.38652 38.79754,-38.97107 7.33008,-4.84048 7.40008,-4.92689 4.59791,-5.67631 -10.90743,-2.9171 -45.93574,-5.83376 -70.18536,-5.84406 -29.61985,-0.0126 -52.39628,2.72074 -74.54013,8.94529 -11.22166,3.15437 -28.21861,10.02037 -30.53166,12.33342 -3.2031,3.2031 -14.24959,37.68239 -18.36232,57.31411 -6.87247,32.80507 -7.40369,64.33149 -1.88274,111.73528 1.07849,9.26016 1.9609,17.24766 1.9609,17.75 0,1.66122 0.67291,0.97843 6.38368,-6.47749 z m 702.43904,-9.35917 c 10.41705,-71.72975 6.67219,-118.22003 -12.88884,-160.00716 -5.53026,-11.81399 -4.45482,-11.06794 -26.01646,-18.04818 -14.73582,-4.77048 -31.10495,-8.51573 -46.91742,-10.73468 -15.5638,-2.18405 -57.32505,-3.02365 -77.01199,-1.5483 -19.13406,1.43389 -41.86996,3.95786 -44.31798,4.91981 -1.49112,0.58594 -0.17971,1.95144 7.08224,7.37434 23.34823,17.43543 42.56216,43.88378 50.70339,69.79417 5.30466,16.88267 6.12323,27.788 4.24101,56.5 l -0.19667,3 23,0.64286 c 47.85914,1.3377 69.11958,8.24367 91.91142,29.85537 7.70974,7.31053 21.55469,23.75009 25.20293,29.92606 0.99928,1.69164 2.09798,3.07571 2.44157,3.07571 0.34359,0 1.58865,-6.6375 2.7668,-14.75 z M 285.15331,276.15558 c 5.88724,-4.01898 22.7634,-12.06521 31.314,-14.92993 23.99352,-8.03857 47.19141,-7.98139 73.94211,0.18227 5.64086,1.72146 10.40985,2.94518 10.59774,2.71936 0.1879,-0.2258 2.26454,-4.23555 4.61477,-8.91055 8.76482,-17.43468 20.95828,-32.4637 34.9803,-43.11487 8.84769,-6.72073 25.60121,-14.89661 37.64993,-18.37349 5.44563,-1.57144 10.25082,-3.15159 10.6782,-3.51145 1.7714,-1.49154 -44.40272,-20.91401 -70.93072,-29.83597 -29.64415,-9.97 -67.88823,-19.71058 -70.16517,-17.87074 -3.74402,3.0253 -33.88818,56.37248 -44.46196,78.6859 -8.21747,17.341 -22.7192,53.44719 -22.7192,56.56592 0,0.94452 1.59977,0.37342 4.5,-1.60645 z m 409.95399,-7.18885 c -3.62852,-11.9923 -16.26313,-42.85465 -26.30305,-64.25 -12.81669,-27.31274 -33.18641,-63.5 -35.74398,-63.5 -4.6353,0 -36.06906,9.41098 -55.8816,16.73044 -24.85567,9.18257 -72.67351,30.45474 -71.37603,31.75222 0.25994,0.25994 4.49518,1.63551 9.41164,3.05682 11.39354,3.29378 25.25759,9.84869 35.17259,16.62957 15.88307,10.86245 32.15714,30.49087 40.81288,49.2251 2.89469,6.26517 3.91442,7.63103 5.27127,7.06053 0.92526,-0.38903 4.91775,-1.76145 8.87219,-3.04982 31.46177,-10.25035 63.26594,-8.36294 83.50104,4.95536 6.32877,4.16546 7.15861,4.3496 6.26305,1.38978 z M 508.88545,172.42568 c 16.92357,-19.88369 35.69309,-32.63058 56.29774,-38.23331 11.26,-3.06177 33.66981,-3.75251 50.3584,-1.5522 6.81355,0.89834 12.52808,1.49354 12.69895,1.32267 0.44923,-0.44923 -6.90909,-10.12915 -17.10621,-22.50332 C 599.38676,97.203869 572.83934,70.850687 559.15331,59.858817 538.01412,42.880967 516.88487,30.113623 498.46074,23.185373 l -8.69258,-3.26878 -7.80742,2.75604 c -17.74835,6.26521 -38.81816,18.454604 -57.30743,33.153724 -11.27562,8.96421 -37.20305,35.053732 -49.0835,49.390373 -12.36714,14.92396 -22.3534,27.90663 -21.83041,28.38071 0.22765,0.20636 4.01391,-0.30752 8.41391,-1.14195 12.07954,-2.29081 42.58635,-2.25033 53.37475,0.0708 20.13361,4.3318 37.46827,11.85892 51.64536,22.42564 8.66927,6.46153 22.61711,20.49282 27.09051,27.25257 l 2.80189,4.23395 2.04375,-2.4641 c 1.12406,-1.35526 5.5232,-6.55217 9.77588,-11.54869 z"
     style="fill:#ffffff" />
</svg>
